<svg xmlns="http://www.w3.org/2000/svg" xmlns:xlink="http://www.w3.org/1999/xlink" xml:space="preserve" version="1.1" style="shape-rendering:geometricPrecision;text-rendering:geometricPrecision;image-rendering:optimizeQuality;" viewBox="0 0 909 913.75" x="0px" y="0px" fill-rule="evenodd" clip-rule="evenodd"><defs><style type="text/css">
   
    .fil0 {fill:black}
   
  </style></defs><g><path class="fil0" d="M173 0l566 0c32,0 58,26 58,58l0 53c145,-11 129,182 68,181l-42 -1 0 -141c0,-7 -7,-12 -26,-9l0 444c0,34 -20,64 -48,80l0 44c0,12 -10,22 -22,22l-81 0c-13,0 -23,-10 -23,-23l0 -33 -326 0 0 34c0,12 -9,22 -21,22l-81 0c-13,0 -23,-10 -23,-23l0 -40c-32,-14 -55,-46 -55,-83l0 -443c-23,-4 -30,0 -31,8l0 141 -42 1c-61,1 -77,-196 73,-181l0 -55c0,-31 25,-56 56,-56zm156 19l252 0 0 32 -252 0 0 -32zm290 575c58,12 104,3 138,-32 11,-15 10,-69 -28,-69 -51,6 -87,32 -117,66 -17,19 -11,29 7,35zm-320 0c-58,12 -104,3 -138,-32 -11,-15 -10,-69 28,-69 51,6 87,32 117,66 17,19 11,29 -7,35zm-126 -458c-2,-80 574,-74 567,0l1 271c10,92 -578,92 -568,0l0 -271z"/></g><text x="0" y="746" fill="#000000" font-size="5px" font-weight="bold" font-family="'Helvetica Neue', Helvetica, Arial-Unicode, Arial, Sans-serif">Created by SANTRI ICON</text><text x="0" y="751" fill="#000000" font-size="5px" font-weight="bold" font-family="'Helvetica Neue', Helvetica, Arial-Unicode, Arial, Sans-serif">from the Noun Project</text></svg>