<svg height="512pt" viewBox="0 0 512 512.001" width="512pt" xmlns="http://www.w3.org/2000/svg"><path d="m456.832031 48.199219h-113.328125l-80.003906-46.1875c-4.640625-2.683594-10.359375-2.683594-15 0l-80.003906 46.1875h-113.328125c-30.421875 0-55.167969 24.75-55.167969 55.167969v245.066406c0 30.417968 24.746094 55.167968 55.167969 55.167968h161.730469v30.199219h-81.398438c-21.558594 0-39.101562 17.539063-39.101562 39.101563 0 21.558594 17.542968 39.097656 39.101562 39.097656h241c21.558594 0 39.101562-17.539062 39.101562-39.097656 0-21.5625-17.542968-39.101563-39.101562-39.101563h-81.398438v-30.199219h161.730469c30.421875 0 55.167969-24.75 55.167969-55.167968v-245.066406c0-30.417969-24.746094-55.167969-55.167969-55.167969zm-311.058593 65.082031 95.226562 54.980469v109.957031l-95.226562-54.980469zm125.226562 54.980469 95.226562-54.980469v109.957031l-95.226562 54.980469zm-15-135.941407 95.226562 54.980469-95.226562 54.976563-95.226562-54.976563 18.878906-10.898437c.03125-.019532.066406-.039063.097656-.058594zm129.601562 440.578126c0 5.019531-4.082031 9.101562-9.101562 9.101562h-241c-5.019531 0-9.101562-4.082031-9.101562-9.101562 0-5.015626 4.082031-9.097657 9.101562-9.097657h241c5.019531 0 9.101562 4.082031 9.101562 9.097657zm-120.5-39.097657h-18.203124v-30.199219h18.203124zm216.898438-85.367187c0 13.878906-11.289062 25.167968-25.167969 25.167968h-401.664062c-13.878907 0-25.167969-11.292968-25.167969-25.167968v-245.066406c0-13.878907 11.289062-25.167969 25.167969-25.167969h63.683593c-1.964843 2.574219-3.078124 5.757812-3.078124 9.101562v144.601563c0 5.359375 2.859374 10.308594 7.5 12.988281l125.226562 72.300781c2.320312 1.339844 4.910156 2.007813 7.5 2.007813s5.179688-.667969 7.5-2.007813l125.226562-72.300781c4.640626-2.679687 7.5-7.628906 7.5-12.988281v-144.601563c0-3.34375-1.113281-6.527343-3.078124-9.101562h63.6875c13.875 0 25.164062 11.289062 25.164062 25.167969zm0 0"/></svg>